<svg xmlns="http://www.w3.org/2000/svg" width="1024" height="1024" viewBox="0 0 1024 1024">
<g>
<path d="M 554.50 422.98 C535.01,424.13 487.90,424.09 468.00,422.91 C414.47,419.74 371.96,410.81 342.16,396.49 C332.72,391.94 329.72,389.91 324.15,384.27 C316.69,376.71 312.81,370.21 310.53,361.47 C308.20,352.51 308.25,245.90 310.60,237.93 C315.29,221.96 324.36,211.78 341.22,203.55 C378.64,185.30 436.45,176.00 512.50,176.00 C587.44,176.00 646.48,185.36 682.62,202.98 C698.44,210.69 707.02,219.71 712.90,234.82 L 715.50 241.50 L 715.80 296.84 C716.08,349.90 716.01,352.52 714.04,360.30 C709.83,376.94 700.41,387.84 682.78,396.45 C652.95,411.03 611.23,419.65 554.50,422.98 ZM 493.65 384.49 C513.27,389.48 534.93,385.78 552.68,374.43 C555.57,372.58 560.31,369.88 563.22,368.42 C566.12,366.97 569.41,364.94 570.53,363.92 C573.11,361.56 580.32,359.00 584.39,359.00 C587.68,359.00 607.37,354.31 615.04,351.70 C617.49,350.87 623.42,348.31 628.22,346.02 C635.40,342.59 638.14,340.57 643.81,334.50 C647.59,330.45 651.95,324.52 653.51,321.32 C655.06,318.12 657.01,314.17 657.85,312.54 C660.24,307.86 659.71,291.82 656.88,282.82 C653.12,270.93 643.16,258.10 633.15,252.26 C620.52,244.90 619.21,244.47 599.00,241.01 C592.67,239.92 585.70,238.61 583.50,238.10 C581.30,237.58 578.38,237.38 577.00,237.64 C575.62,237.90 570.45,236.92 565.50,235.48 C544.75,229.40 520.97,227.09 497.73,228.90 C480.98,230.19 465.82,232.80 459.42,235.47 C457.41,236.31 453.82,237.00 451.44,237.00 C443.95,237.00 419.32,241.19 412.86,243.56 C410.86,244.29 409.00,244.66 408.72,244.38 C408.44,244.10 404.90,245.47 400.85,247.42 C392.64,251.39 377.42,263.63 374.78,268.39 C367.92,280.82 366.59,286.57 367.24,300.93 C367.82,313.79 370.19,321.08 376.34,328.93 C387.05,342.59 401.39,350.58 425.50,356.34 C431.55,357.78 439.09,359.23 442.26,359.56 C446.49,359.99 448.86,360.86 451.17,362.82 C452.90,364.30 457.16,367.08 460.64,369.00 C464.13,370.92 470.76,374.64 475.38,377.25 C481.03,380.44 487.02,382.81 493.65,384.49 Z" fill="rgb(16,38,51)"/>
<path d="M 493.65 384.49 C487.02,382.81 481.03,380.44 475.38,377.25 C470.76,374.64 464.13,370.92 460.64,369.00 C457.16,367.08 452.90,364.30 451.17,362.82 C448.86,360.86 446.49,359.99 442.26,359.56 C439.09,359.23 431.55,357.78 425.50,356.34 C401.39,350.58 387.05,342.59 376.34,328.93 C370.19,321.08 367.82,313.79 367.24,300.93 C366.59,286.57 367.92,280.82 374.78,268.39 C377.42,263.63 392.64,251.39 400.85,247.42 C404.90,245.47 408.44,244.10 408.72,244.38 C409.00,244.66 410.86,244.29 412.86,243.56 C419.32,241.19 443.95,237.00 451.44,237.00 C453.82,237.00 457.41,236.31 459.42,235.47 C465.82,232.80 480.98,230.19 497.73,228.90 C520.97,227.09 544.75,229.40 565.50,235.48 C570.45,236.92 575.62,237.90 577.00,237.64 C578.38,237.38 581.30,237.58 583.50,238.10 C585.70,238.61 592.67,239.92 599.00,241.01 C619.21,244.47 620.52,244.90 633.15,252.26 C643.16,258.10 653.12,270.93 656.88,282.82 C659.71,291.82 660.24,307.86 657.85,312.54 C657.01,314.17 655.06,318.12 653.51,321.32 C651.95,324.52 647.59,330.45 643.81,334.50 C638.14,340.57 635.40,342.59 628.22,346.02 C623.42,348.31 617.49,350.87 615.04,351.70 C607.37,354.31 587.68,359.00 584.39,359.00 C580.32,359.00 573.11,361.56 570.53,363.92 C569.41,364.94 566.12,366.97 563.22,368.42 C560.31,369.88 555.57,372.58 552.68,374.43 C534.93,385.78 513.27,389.48 493.65,384.49 ZM 387.00 310.21 C389.31,312.09 390.23,312.18 399.00,311.41 C410.94,310.37 418.81,310.37 431.57,311.44 L 441.64 312.28 L 443.82 309.50 C448.13,304.02 445.86,290.79 439.15,282.32 C433.76,275.49 426.54,271.80 417.45,271.21 C407.73,270.59 401.57,272.71 394.62,279.06 C387.62,285.46 384.63,292.09 384.55,301.34 C384.51,307.45 384.76,308.39 387.00,310.21 ZM 580.14 310.14 C582.17,312.17 582.81,312.24 592.39,311.44 C605.11,310.39 611.89,310.39 624.61,311.44 C634.19,312.24 634.83,312.17 636.86,310.14 C638.63,308.37 639.00,306.82 638.99,301.25 C638.97,284.21 625.65,271.00 608.50,271.00 C591.35,271.00 578.03,284.21 578.01,301.25 C578.00,306.82 578.37,308.37 580.14,310.14 ZM 506.50 377.11 C510.76,378.22 518.67,377.21 522.90,375.03 C529.84,371.45 535.35,363.90 536.57,356.28 C537.71,349.18 537.08,349.00 512.00,349.00 C486.82,349.00 486.35,349.14 487.55,356.39 C489.20,366.31 496.77,374.59 506.50,377.11 Z" fill="rgb(27,59,78)"/>
<path d="M 545.77 830.12 C533.86,832.77 498.92,833.65 486.50,831.61 C452.57,826.02 422.87,811.15 397.92,787.25 C381.58,771.58 371.52,758.71 360.22,739.00 C344.02,710.72 331.47,673.79 325.90,638.00 C324.66,630.03 323.34,623.15 322.98,622.71 C322.14,621.71 320.60,628.79 312.58,670.56 C304.98,710.15 302.61,719.07 296.27,731.95 C282.47,759.96 255.35,771.79 231.98,759.99 C225.26,756.60 217.21,748.17 213.59,740.75 C206.25,725.68 204.81,705.45 209.44,682.50 C221.12,624.74 241.38,572.15 265.17,537.82 C287.75,505.25 315.05,486.98 341.66,486.61 C346.15,486.55 350.14,486.81 350.52,487.19 C350.89,487.56 348.53,490.98 345.25,494.79 C334.09,507.76 327.85,518.85 323.36,533.71 C320.94,541.69 320.67,544.26 320.42,561.50 C320.27,572.46 320.49,579.02 320.94,577.00 C321.73,573.53 321.74,573.55 321.87,578.25 L 322.00 583.00 L 340.73 583.00 L 341.35 587.56 C342.59,596.60 347.99,611.85 350.71,613.98 C353.91,616.51 355.08,616.51 358.29,613.99 C360.00,612.64 361.74,609.26 363.56,603.74 C365.05,599.21 367.53,592.69 369.07,589.25 L 371.87 583.00 L 649.05 583.00 L 650.08 580.28 C650.65,578.78 651.50,572.15 651.98,565.53 C652.73,554.96 652.55,551.80 650.48,539.50 C646.49,515.76 637.87,490.47 627.00,470.59 C623.82,464.76 621.52,459.80 621.91,459.56 C623.05,458.85 645.91,470.43 653.50,475.56 C657.35,478.16 662.48,481.98 664.91,484.05 C668.34,486.98 669.89,487.68 671.91,487.24 C676.99,486.13 690.61,486.79 696.94,488.46 C727.19,496.42 755.10,524.66 777.04,569.50 C784.15,584.02 787.24,592.30 791.50,608.17 L 793.99 617.50 L 794.00 686.68 L 794.00 755.85 L 790.25 758.95 C785.23,763.10 780.20,764.30 769.84,763.80 C757.87,763.24 748.96,758.88 739.72,749.09 C725.40,733.91 721.13,722.05 711.57,671.00 C706.38,643.27 701.86,621.80 701.33,622.33 C701.14,622.53 699.60,630.52 697.93,640.10 C691.44,677.15 679.68,711.30 663.97,738.68 C635.70,787.95 595.51,819.04 545.77,830.12 ZM 554.50 422.98 C611.23,419.65 652.95,411.03 682.78,396.45 C700.41,387.84 709.83,376.94 714.04,360.30 C716.01,352.52 716.08,349.90 715.80,296.84 L 715.50 241.50 L 712.90 234.82 C707.02,219.71 698.44,210.69 682.62,202.98 C655.99,190.00 616.93,181.50 568.25,177.93 C590.19,179.39 609.93,181.77 624.74,185.06 C627.08,185.58 632.07,186.44 635.85,186.98 C639.62,187.51 643.56,188.22 644.61,188.55 C646.08,189.02 646.17,188.94 645.00,188.21 C644.17,187.69 640.22,186.48 636.20,185.51 C632.19,184.55 629.14,183.52 629.44,183.23 C629.73,182.94 629.29,182.20 628.47,181.60 C627.37,180.80 639.55,180.57 673.69,180.77 C678.04,180.79 682.00,180.81 685.61,180.83 C713.86,180.94 720.72,180.97 724.19,184.42 C725.75,185.97 726.62,188.20 728.43,191.45 C732.26,198.30 734.59,206.37 735.59,216.27 C735.92,219.53 735.94,221.24 736.77,222.30 C737.88,223.69 740.42,223.94 747.00,225.07 C760.77,227.42 773.23,236.51 774.47,245.12 C774.82,247.53 774.97,267.11 774.80,288.62 L 774.50 327.75 L 771.84 331.49 C766.29,339.29 755.19,344.81 741.75,346.44 C736.26,347.11 736.00,347.27 736.00,349.98 C736.00,355.06 733.17,367.77 730.66,373.99 C725.02,387.96 714.15,401.42 702.00,409.50 C682.05,422.76 646.18,434.14 605.50,440.10 L 590.50 442.30 L 590.50 455.90 C590.50,468.71 590.35,469.79 587.84,474.50 C579.72,489.75 560.37,500.79 533.62,505.45 C522.59,507.37 500.40,507.34 489.59,505.39 C463.48,500.68 444.15,489.50 436.16,474.50 C433.66,469.81 433.50,468.68 433.50,456.25 C433.50,448.96 433.19,443.00 432.80,443.00 C432.42,443.00 426.79,442.31 420.30,441.48 C374.72,435.59 334.26,423.27 313.35,408.90 C295.08,396.35 282.95,375.49 280.49,352.39 L 279.84 346.28 L 274.67 345.12 C257.92,341.37 246.11,329.40 243.01,313.04 C241.63,305.78 241.72,263.43 243.12,256.80 C246.50,240.89 260.32,227.43 275.39,225.36 C280.49,224.66 280.33,225.01 281.43,212.27 C282.37,201.32 286.86,190.66 293.50,183.62 C296.40,180.55 296.72,180.45 302.79,180.97 L 309.08 181.50 L 306.26 186.00 C299.30,197.07 294.36,213.32 296.99,216.49 C299.18,219.13 301.08,218.18 309.18,210.45 C321.95,198.25 338.94,188.35 356.34,182.98 C361.80,181.29 366.09,180.88 379.96,180.71 C389.28,180.59 396.53,180.87 396.08,181.32 C395.34,182.06 393.16,182.69 390.50,182.94 C389.95,182.99 390.10,183.41 390.83,183.87 C391.76,184.47 391.18,184.91 388.89,185.37 C383.27,186.50 377.78,188.11 378.19,188.52 C378.41,188.74 381.04,188.31 384.04,187.56 C387.04,186.81 390.85,186.18 392.50,186.17 C393.69,186.15 395.79,185.91 397.79,185.56 C375.56,190.02 356.66,196.02 341.22,203.55 C324.36,211.78 315.29,221.96 310.60,237.93 C308.25,245.90 308.20,352.51 310.53,361.47 C312.81,370.21 316.69,376.71 324.15,384.27 C329.72,389.91 332.72,391.94 342.16,396.49 C371.96,410.81 414.47,419.74 468.00,422.91 C487.90,424.09 535.01,424.13 554.50,422.98 ZM 593.00 124.44 C593.00,125.30 592.44,125.94 591.75,125.86 C556.27,121.81 515.68,120.36 479.41,121.85 C463.51,122.50 446.27,123.48 441.09,124.03 C435.92,124.57 431.48,124.82 431.24,124.57 C430.99,124.32 431.58,122.04 432.56,119.49 C436.53,109.08 448.62,100.10 461.50,97.99 C469.21,96.73 554.65,96.71 562.32,97.96 C574.78,100.01 585.81,107.68 590.48,117.55 C591.87,120.48 593.00,123.58 593.00,124.44 ZM 387.00 310.21 C384.76,308.39 384.51,307.45 384.55,301.34 C384.63,292.09 387.62,285.46 394.62,279.06 C401.57,272.71 407.73,270.59 417.45,271.21 C426.54,271.80 433.76,275.49 439.15,282.32 C445.86,290.79 448.13,304.02 443.82,309.50 L 441.64 312.28 L 431.57 311.44 C418.81,310.37 410.94,310.37 399.00,311.41 C390.23,312.18 389.31,312.09 387.00,310.21 ZM 580.14 310.14 C578.37,308.37 578.00,306.82 578.01,301.25 C578.03,284.21 591.35,271.00 608.50,271.00 C625.65,271.00 638.97,284.21 638.99,301.25 C639.00,306.82 638.63,308.37 636.86,310.14 C634.83,312.17 634.19,312.24 624.61,311.44 C611.89,310.39 605.11,310.39 592.39,311.44 C582.81,312.24 582.17,312.17 580.14,310.14 ZM 506.50 377.11 C496.77,374.59 489.20,366.31 487.55,356.39 C486.35,349.14 486.82,349.00 512.00,349.00 C537.08,349.00 537.71,349.18 536.57,356.28 C535.35,363.90 529.84,371.45 522.90,375.03 C518.67,377.21 510.76,378.22 506.50,377.11 ZM 543.21 913.70 C536.15,915.46 498.56,916.30 488.50,914.93 C484.65,914.40 479.40,913.28 476.83,912.43 C467.98,909.51 468.17,906.24 477.33,903.61 C499.66,897.22 554.00,900.33 554.00,908.00 C554.00,909.66 549.13,912.23 543.21,913.70 ZM 400.10 185.10 C413.53,182.11 431.06,179.86 450.63,178.37 C432.28,179.89 415.42,182.14 400.10,185.10 Z" fill="rgb(192,201,210)"/>
<path d="M 0.00 512.00 L 0.00 0.00 L 512.00 0.00 L 1024.00 0.00 L 1024.00 512.00 L 1024.00 1024.00 L 512.00 1024.00 L 0.00 1024.00 L 0.00 512.00 ZM 543.21 913.70 C549.13,912.23 554.00,909.66 554.00,908.00 C554.00,900.33 499.66,897.22 477.33,903.61 C468.17,906.24 467.98,909.51 476.83,912.43 C479.40,913.28 484.65,914.40 488.50,914.93 C498.56,916.30 536.15,915.46 543.21,913.70 ZM 545.77 830.12 C595.51,819.04 635.70,787.95 663.97,738.68 C679.68,711.30 691.44,677.15 697.93,640.10 C699.60,630.52 701.14,622.53 701.33,622.33 C701.86,621.80 706.38,643.27 711.57,671.00 C721.13,722.05 725.40,733.91 739.72,749.09 C748.96,758.88 757.87,763.24 769.84,763.80 C780.20,764.30 785.23,763.10 790.25,758.95 L 794.00 755.85 L 794.00 686.68 L 793.99 617.50 L 791.50 608.17 C787.24,592.30 784.15,584.02 777.04,569.50 C755.10,524.66 727.19,496.42 696.94,488.46 C690.61,486.79 676.99,486.13 671.91,487.24 C669.89,487.68 668.34,486.98 664.91,484.05 C662.48,481.98 657.35,478.16 653.50,475.56 C645.91,470.43 623.05,458.85 621.91,459.56 C621.52,459.80 623.82,464.76 627.00,470.59 C637.87,490.47 646.49,515.76 650.48,539.50 C652.55,551.80 652.73,554.96 651.98,565.53 C651.50,572.15 650.65,578.78 650.08,580.28 L 649.05 583.00 L 510.46 583.00 L 371.87 583.00 L 369.07 589.25 C367.53,592.69 365.05,599.21 363.56,603.74 C361.74,609.26 360.00,612.64 358.29,613.99 C355.08,616.51 353.91,616.51 350.71,613.98 C347.99,611.85 342.59,596.60 341.35,587.56 L 340.73 583.00 L 331.36 583.00 L 322.00 583.00 L 321.87 578.25 C321.74,573.55 321.73,573.53 320.94,577.00 C320.49,579.02 320.27,572.46 320.42,561.50 C320.67,544.26 320.94,541.69 323.36,533.71 C327.85,518.85 334.09,507.76 345.25,494.79 C348.53,490.98 350.89,487.56 350.52,487.19 C350.14,486.81 346.15,486.55 341.66,486.61 C315.05,486.98 287.75,505.25 265.17,537.82 C241.38,572.15 221.12,624.74 209.44,682.50 C204.81,705.45 206.25,725.68 213.59,740.75 C217.21,748.17 225.26,756.60 231.98,759.99 C255.35,771.79 282.47,759.96 296.27,731.95 C302.61,719.07 304.98,710.15 312.58,670.56 C320.60,628.79 322.14,621.71 322.98,622.71 C323.34,623.15 324.66,630.03 325.90,638.00 C331.47,673.79 344.02,710.72 360.22,739.00 C371.52,758.71 381.58,771.58 397.92,787.25 C422.87,811.15 452.57,826.02 486.50,831.61 C498.92,833.65 533.86,832.77 545.77,830.12 ZM 533.62 505.45 C560.37,500.79 579.72,489.75 587.84,474.50 C590.35,469.79 590.50,468.71 590.50,455.90 L 590.50 442.30 L 605.50 440.10 C646.18,434.14 682.05,422.76 702.00,409.50 C714.15,401.42 725.02,387.96 730.66,373.99 C733.17,367.77 736.00,355.06 736.00,349.98 C736.00,347.27 736.26,347.11 741.75,346.44 C755.19,344.81 766.29,339.29 771.84,331.49 L 774.50 327.75 L 774.80 288.62 C774.97,267.11 774.82,247.53 774.47,245.12 C773.23,236.51 760.77,227.42 747.00,225.07 C735.41,223.08 736.36,223.82 735.59,216.27 C734.59,206.37 732.26,198.30 728.43,191.45 C722.06,180.05 727.32,181.08 673.69,180.77 C639.55,180.57 627.37,180.80 628.47,181.60 C629.29,182.20 629.73,182.94 629.44,183.23 C629.14,183.52 632.19,184.55 636.20,185.51 C640.22,186.48 644.17,187.69 645.00,188.21 C646.17,188.94 646.08,189.02 644.61,188.55 C643.56,188.22 639.62,187.51 635.85,186.98 C632.07,186.44 627.08,185.58 624.74,185.06 C571.23,173.17 453.26,173.20 400.00,185.13 C397.52,185.68 394.15,186.15 392.50,186.17 C390.85,186.18 387.04,186.81 384.04,187.56 C381.04,188.31 378.41,188.74 378.19,188.52 C377.78,188.11 383.27,186.50 388.89,185.37 C391.18,184.91 391.76,184.47 390.83,183.87 C390.10,183.41 389.95,182.99 390.50,182.94 C393.16,182.69 395.34,182.06 396.08,181.32 C396.53,180.87 389.28,180.59 379.96,180.71 C366.09,180.88 361.80,181.29 356.34,182.98 C338.94,188.35 321.95,198.25 309.18,210.45 C301.08,218.18 299.18,219.13 296.99,216.49 C294.36,213.32 299.30,197.07 306.26,186.00 L 309.08 181.50 L 302.79 180.97 C296.72,180.45 296.40,180.55 293.50,183.62 C286.86,190.66 282.37,201.32 281.43,212.27 C280.33,225.01 280.49,224.66 275.39,225.36 C260.32,227.43 246.50,240.89 243.12,256.80 C241.72,263.43 241.63,305.78 243.01,313.04 C246.11,329.40 257.92,341.37 274.67,345.12 L 279.84 346.28 L 280.49 352.39 C282.95,375.49 295.08,396.35 313.35,408.90 C334.26,423.27 374.72,435.59 420.30,441.48 C426.79,442.31 432.42,443.00 432.80,443.00 C433.19,443.00 433.50,448.96 433.50,456.25 C433.50,468.68 433.66,469.81 436.16,474.50 C444.15,489.50 463.48,500.68 489.59,505.39 C500.40,507.34 522.59,507.37 533.62,505.45 ZM 593.00 124.44 C593.00,123.58 591.87,120.48 590.48,117.55 C585.81,107.68 574.78,100.01 562.32,97.96 C554.65,96.71 469.21,96.73 461.50,97.99 C448.62,100.10 436.53,109.08 432.56,119.49 C431.58,122.04 430.99,124.32 431.24,124.57 C431.48,124.82 435.92,124.57 441.09,124.03 C446.27,123.48 463.51,122.50 479.41,121.85 C515.68,120.36 556.27,121.81 591.75,125.86 C592.44,125.94 593.00,125.30 593.00,124.44 Z" fill="rgb(253,253,253)"/>
</g>
</svg>